<svg width="34" height="34" viewBox="0 0 34 34" fill="none" xmlns="http://www.w3.org/2000/svg">
<path d="M32 32V34C33.1046 34 34 33.1046 34 32H32ZM2 2V0C0.89543 0 0 0.89543 0 2L2 2ZM32 2H34C34 0.89543 33.1046 0 32 0V2ZM30 10C30 11.1046 30.8954 12 32 12C33.1046 12 34 11.1046 34 10H30ZM24 0C22.8954 0 22 0.89543 22 2C22 3.10457 22.8954 4 24 4V0ZM15.0858 16.0858C14.3047 16.8668 14.3047 18.1332 15.0858 18.9142C15.8668 19.6953 17.1332 19.6953 17.9142 18.9142L15.0858 16.0858ZM7 4C8.10457 4 9 3.10457 9 2C9 0.89543 8.10457 0 7 0V4ZM34 28C34 26.8954 33.1046 26 32 26C30.8954 26 30 26.8954 30 28H34ZM32 30H31V34H32V30ZM4 3V2H0V3H4ZM30 2V10H34V2H30ZM24 4H32V0H24V4ZM30.5858 0.585786L15.0858 16.0858L17.9142 18.9142L33.4142 3.41421L30.5858 0.585786ZM2 4H7V0H2V4ZM34 32V28H30V32H34ZM31 30C16.0883 30 4 17.9117 4 3H0C0 20.1208 13.8792 34 31 34V30Z" fill="white"/>
</svg>
