<svg width="34" height="34" viewBox="0 0 34 34" fill="none" xmlns="http://www.w3.org/2000/svg">
<path d="M12.3546 16.4808C11.542 15.7327 10.2767 15.7849 9.5286 16.5976C8.78047 17.4102 8.83275 18.6754 9.64538 19.4236L12.3546 16.4808ZM14.3103 20.9998L12.9557 22.4712C13.7651 23.2164 15.0244 23.1679 15.7741 22.3626L14.3103 20.9998ZM33.4638 3.36284C34.2165 2.55442 34.1713 1.2889 33.3628 0.536219C32.5544 -0.216459 31.2889 -0.171268 30.5362 0.637155L33.4638 3.36284ZM30 17C30 24.1797 24.1797 30 17 30V34C26.3888 34 34 26.3888 34 17H30ZM17 30C9.8203 30 4 24.1797 4 17H0C0 26.3888 7.61116 34 17 34V30ZM4 17C4 9.8203 9.8203 4 17 4V0C7.61116 0 0 7.61116 0 17H4ZM9.64538 19.4236L12.9557 22.4712L15.665 19.5284L12.3546 16.4808L9.64538 19.4236ZM15.7741 22.3626L33.4638 3.36284L30.5362 0.637155L12.8466 19.637L15.7741 22.3626Z" fill="white"/>
</svg>
